<?xml version="1.0" standalone="no"?>
<!DOCTYPE svg PUBLIC "-//W3C//DTD SVG 20010904//EN"
 "http://www.w3.org/TR/2001/REC-SVG-20010904/DTD/svg10.dtd">
<svg version="1.0" xmlns="http://www.w3.org/2000/svg"
 width="488.000000pt" height="511.000000pt" viewBox="0 0 488.000000 511.000000"
 preserveAspectRatio="xMidYMid meet">

<g transform="translate(0.000000,511.000000) scale(0.100000,-0.100000)"
fill="#000000" stroke="none">
<path d="M2222 5040 c-232 -19 -538 -102 -738 -201 -191 -93 -404 -249 -576
-421 -327 -327 -544 -772 -609 -1248 -15 -113 -15 -401 0 -520 54 -409 207
-794 452 -1131 48 -67 51 -79 19 -79 -44 0 -90 -96 -90 -189 0 -110 34 -172
115 -211 l45 -22 0 -102 0 -101 41 -50 c142 -172 461 -371 740 -463 269 -87
523 -126 829 -125 223 0 333 13 544 63 330 79 647 247 875 466 l111 106 0 98
0 99 57 38 c80 53 96 86 101 198 3 79 0 96 -20 135 -20 39 -43 59 -83 73 -5 2
7 23 27 48 67 82 179 263 238 384 77 157 123 285 170 469 100 393 90 756 -31
1175 -208 720 -811 1294 -1529 1454 -239 53 -484 74 -688 57z m-434 -572 c7
-7 12 -8 12 -4 0 5 7 3 15 -4 8 -7 13 -16 10 -20 -3 -4 11 -22 30 -39 20 -17
40 -42 45 -55 12 -32 48 -56 96 -62 70 -9 87 -15 78 -24 -9 -9 -70 2 -129 22
-16 6 -37 10 -46 10 -8 0 -24 14 -34 31 -18 33 -103 117 -117 117 -4 0 -8 5
-8 10 0 6 7 10 16 10 8 0 12 5 9 10 -9 14 8 13 23 -2z m62 -218 c0 -6 7 -10
16 -10 10 0 14 6 10 15 -8 21 14 19 39 -5 21 -20 69 -29 189 -34 56 -3 60 -5
77 -37 10 -19 18 -46 19 -61 0 -27 -1 -28 -54 -24 -29 2 -64 10 -77 17 -13 8
-28 15 -34 15 -5 1 -13 3 -17 4 -18 6 -66 4 -62 -2 9 -14 -14 -17 -26 -3 -8 9
-8 15 -2 15 15 0 8 32 -11 44 -22 14 -31 2 -18 -23 9 -17 9 -20 -3 -15 -8 3
-20 21 -26 40 -6 18 -24 44 -39 56 -43 37 -49 52 -12 34 17 -9 31 -21 31 -26z
m-269 -63 c-13 -12 -20 -15 -16 -7 14 26 28 41 33 35 3 -3 -5 -16 -17 -28z
m-21 -63 c0 -13 4 -24 9 -24 13 0 1 -48 -16 -62 -35 -29 -60 67 -27 103 20 23
34 16 34 -17z m2054 30 c19 -7 21 -55 4 -72 -21 -21 7 -13 30 8 12 11 25 20
30 20 17 0 37 -33 34 -56 -2 -13 1 -24 7 -24 6 0 11 6 11 14 0 7 7 19 15 26
12 10 15 9 15 -8 0 -11 6 -25 14 -31 8 -7 23 -30 34 -51 l19 -39 -33 -36 c-19
-19 -34 -43 -34 -53 0 -11 -9 -27 -20 -37 -20 -18 -21 -18 -48 7 -25 25 -105
58 -137 58 -26 0 -16 -38 14 -59 16 -12 34 -21 41 -21 6 0 29 -10 50 -22 43
-25 51 -50 23 -80 -17 -19 -43 -24 -43 -9 0 5 -23 8 -51 8 -28 0 -53 3 -57 9
-4 5 -29 10 -56 11 -62 2 -74 13 -50 47 11 14 24 26 31 26 7 0 10 7 7 15 -4 9
4 26 18 39 13 13 35 46 48 73 18 34 31 47 43 45 12 -2 17 3 17 18 0 12 -4 18
-10 15 -15 -9 -12 36 5 84 12 36 12 41 0 41 -8 0 -15 9 -15 20 0 20 15 25 44
14z m126 -56 c0 -6 -6 -5 -15 2 -8 7 -15 14 -15 16 0 2 7 1 15 -2 8 -4 15 -11
15 -16z m-2644 -24 c-3 -9 -6 -18 -6 -20 0 -2 -7 -4 -15 -4 -18 0 -19 12 -3
28 17 17 31 15 24 -4z m-24 -56 c-7 -7 -12 -8 -12 -2 0 14 12 26 19 19 2 -3
-1 -11 -7 -17z m-29 -8 c6 -23 -5 -33 -27 -24 -12 5 -13 9 -3 25 15 24 23 24
30 -1z m1825 -1 c12 -19 11 -20 -24 -13 -33 6 -36 5 -30 -11 5 -15 4 -16 -9
-5 -17 14 -11 28 19 40 30 12 30 12 44 -11z m-913 1 c3 -5 15 -10 26 -10 10 0
36 -15 56 -34 l37 -33 -33 -17 c-31 -17 -33 -17 -46 1 -8 10 -12 26 -9 36 7
21 -18 23 -36 2 -17 -20 -3 -55 23 -55 15 0 18 -3 10 -11 -14 -14 -64 1 -73
22 -4 8 -12 24 -18 36 -17 33 -15 49 11 61 29 14 44 14 52 2z m-758 -22 c-3
-8 -6 -5 -6 6 -1 11 2 17 5 13 3 -3 4 -12 1 -19z m-97 -13 c0 -8 -5 -15 -11
-15 -5 0 -7 -5 -4 -10 4 -6 11 -8 16 -4 6 3 1 -11 -10 -32 -12 -21 -21 -51
-21 -66 0 -28 -52 -98 -73 -98 -5 0 -25 11 -43 25 -21 16 -39 22 -50 18 -14
-5 -16 -3 -11 11 4 10 7 21 7 25 0 3 14 22 30 40 17 18 34 46 37 62 7 37 21
46 41 26 14 -15 18 -15 44 1 15 9 28 20 28 24 0 4 5 8 10 8 6 0 10 -7 10 -15z
m1668 -2 c-3 -11 31 -73 40 -73 16 0 32 24 32 47 0 28 25 31 40 4 20 -38 -35
-70 -115 -66 -51 2 -61 16 -29 41 22 17 17 26 -8 14 -17 -8 -15 -4 7 14 32 28
36 30 33 19z m705 -53 c-3 -12 -8 -19 -11 -16 -5 6 5 36 12 36 2 0 2 -9 -1
-20z m-1658 -54 c23 -36 78 -66 135 -73 49 -7 50 -15 7 -31 -46 -17 -75 -15
-125 8 -52 23 -74 67 -65 126 5 33 8 36 17 20 6 -10 20 -32 31 -50z m-60 -46
c5 -17 4 -22 -3 -15 -5 6 -13 21 -17 35 -5 17 -4 22 3 15 5 -5 13 -21 17 -35z
m-857 -87 c2 -8 -5 -13 -17 -13 -12 0 -21 6 -21 16 0 18 31 15 38 -3z m1502
-3 c0 -5 -4 -10 -10 -10 -5 0 -10 5 -10 10 0 6 5 10 10 10 6 0 10 -4 10 -10z
m-1266 -22 c-7 -24 -32 -47 -50 -48 -7 0 -14 11 -16 25 -4 19 -1 25 13 25 10
0 21 5 24 10 3 6 13 10 21 10 11 0 13 -6 8 -22z m1220 -14 c4 -11 2 -12 -14
-1 -11 6 -20 15 -20 19 0 12 28 -3 34 -18z m1046 6 c0 -5 -5 -10 -11 -10 -5 0
-7 5 -4 10 3 6 8 10 11 10 2 0 4 -4 4 -10z m-1220 -70 c8 -5 11 -12 8 -16 -4
-3 -14 1 -23 10 -18 17 -9 21 15 6z m1345 -30 c-3 -5 -12 -10 -20 -10 -8 0
-17 5 -20 10 -4 6 5 10 20 10 15 0 24 -4 20 -10z m-2540 -58 c16 -47 16 -47
-9 -67 -14 -11 -43 -34 -63 -52 -42 -35 -58 -26 -22 13 20 21 21 27 10 48 -20
36 -6 104 22 108 36 6 45 -1 62 -50z m138 21 c5 -28 -3 -56 -16 -54 -8 1 -7
-6 3 -33 5 -14 9 -16 14 -7 4 6 5 18 2 26 -3 8 -1 17 4 20 21 13 9 -48 -12
-66 -28 -22 -38 -24 -38 -4 0 8 -4 15 -10 15 -12 0 -5 46 14 93 19 44 32 47
39 10z m-339 -70 c4 -5 13 -8 19 -8 8 0 11 -14 9 -38 -2 -21 2 -44 8 -52 17
-20 -16 -33 -42 -16 -10 6 -23 9 -27 6 -5 -2 -14 2 -21 10 -9 11 -8 20 6 45
10 16 22 30 27 30 5 0 7 7 3 15 -6 16 5 20 18 8z m1072 -192 c111 -23 245 -86
312 -146 67 -60 95 -127 96 -225 2 -132 -58 -224 -187 -288 -37 -19 -67 -37
-67 -41 0 -5 26 -18 58 -30 123 -47 180 -99 233 -212 46 -97 39 -188 -19 -279
-111 -171 -302 -251 -637 -266 -414 -19 -689 106 -750 341 -20 79 -19 134 5
196 42 111 122 183 250 225 35 12 66 26 67 31 2 6 -11 16 -29 23 -88 32 -112
47 -156 94 -68 71 -95 147 -87 235 12 117 58 188 175 267 71 49 199 84 350 98
90 8 297 -4 386 -23z m1397 18 c167 -25 329 -88 413 -162 139 -123 146 -315
16 -459 -39 -43 -127 -88 -173 -88 -16 0 -29 -4 -29 -10 0 -10 19 -16 91 -25
85 -11 201 -102 242 -190 15 -29 29 -76 33 -103 7 -53 -9 -149 -33 -197 -64
-127 -211 -217 -412 -251 -125 -22 -522 -15 -615 10 -161 44 -298 130 -351
220 -65 110 -33 320 63 412 45 44 138 100 186 114 57 16 59 36 6 43 -47 6
-139 73 -182 133 -51 71 -53 229 -6 319 22 41 93 106 151 139 147 84 404 124
600 95z m-1396 -1641 c6 -7 10 -36 10 -64 1 -33 15 -90 41 -165 87 -246 145
-395 164 -421 10 -15 16 -32 13 -38 -7 -11 -257 -14 -268 -4 -3 3 -2 16 3 28
5 14 2 39 -9 71 l-16 50 -105 0 -105 0 -1 -75 0 -75 -89 3 c-49 1 -89 3 -90 5
-5 5 115 468 143 559 48 150 32 138 176 138 87 0 126 -4 133 -12z m678 2 c154
-18 205 -72 205 -219 0 -93 -16 -133 -71 -172 -16 -11 -29 -27 -29 -36 0 -27
101 -212 127 -233 13 -10 22 -24 18 -30 -4 -6 -63 -10 -156 -10 -123 0 -149 3
-149 14 0 8 5 18 11 22 15 9 5 51 -27 122 -32 70 -60 102 -91 102 -22 0 -23
-2 -23 -94 0 -78 3 -97 20 -119 11 -14 20 -30 20 -36 0 -7 -45 -11 -140 -11
-90 0 -140 4 -140 10 0 6 7 21 16 34 13 21 15 68 12 340 -3 274 -1 316 12 320
31 8 299 5 385 -4z m845 -10 c5 -8 10 -54 10 -102 0 -92 -6 -103 -41 -72 -23
20 -86 43 -122 44 l-28 0 2 -257 c1 -150 5 -263 11 -270 19 -24 -4 -31 -109
-32 -133 -1 -143 3 -120 56 15 33 17 68 15 268 l-3 230 -40 -3 c-22 -1 -62
-14 -89 -27 -28 -13 -53 -22 -58 -19 -13 8 -1 186 13 195 7 4 134 7 281 6 227
-2 270 -4 278 -17z m-2156 -649 c29 -30 29 -31 11 -51 -13 -14 -27 -19 -44
-16 -23 5 -34 -4 -83 -67 -32 -39 -64 -81 -72 -92 -14 -20 -15 -20 -45 9 l-30
28 75 85 c73 84 85 108 63 130 -8 8 -6 18 6 37 l17 26 37 -29 c20 -16 49 -43
65 -60z m2568 33 c90 -79 111 -153 59 -205 -35 -34 -66 -37 -120 -9 -138 70
-161 260 -31 260 33 0 48 -8 92 -46z m-193 -204 c40 -56 81 -106 92 -113 10
-6 19 -17 19 -23 0 -9 -52 -54 -63 -54 -3 0 -35 45 -71 99 -37 54 -78 111 -91
126 -14 14 -25 30 -25 34 0 8 38 29 55 30 6 1 44 -44 84 -99z m-2240 60 l39
-19 -44 -133 c-24 -73 -44 -143 -44 -155 0 -29 -22 -29 -55 0 -24 20 -26 25
-14 50 11 23 10 30 -3 44 -20 19 -48 11 -55 -17 -7 -27 -17 -25 -55 10 -32 30
-32 31 -13 43 33 20 156 140 173 170 19 32 22 33 71 7z m2060 -89 c69 -49 118
-205 78 -248 -26 -29 -103 -67 -121 -60 -9 4 -41 57 -71 118 -30 62 -60 118
-66 125 -15 18 -5 31 49 59 57 29 95 31 131 6z m-1851 -23 c69 -31 73 -35 70
-63 -3 -30 -14 -35 -49 -21 -13 6 -24 -14 -57 -94 -23 -55 -42 -109 -42 -120
0 -25 -2 -25 -50 0 -45 23 -46 26 -24 51 19 21 84 168 84 191 0 9 -9 20 -20
23 -11 3 -20 11 -20 16 0 15 20 49 28 49 4 0 40 -15 80 -32z m1645 -153 c49
-136 50 -169 9 -207 -41 -36 -89 -38 -121 -4 -19 20 -111 226 -111 247 0 10
62 30 69 23 3 -3 24 -56 47 -117 42 -114 66 -141 72 -81 3 34 -48 176 -74 205
-16 18 -15 19 7 28 56 23 62 18 102 -94z m-1432 73 c72 -24 78 -29 71 -64 -3
-18 -10 -24 -21 -21 -9 2 -22 6 -30 8 -10 3 -20 -22 -37 -91 -13 -52 -23 -107
-24 -122 0 -31 -10 -34 -59 -17 -23 8 -31 16 -27 28 27 83 56 190 56 209 0 13
-6 22 -14 22 -21 0 -29 17 -22 46 8 30 24 30 107 2z m1182 -83 c3 -18 0 -25
-12 -25 -43 -1 -44 -12 -17 -140 14 -68 24 -125 23 -127 -2 -1 -18 -6 -35 -9
-37 -7 -32 -17 -63 129 l-22 108 -31 -3 c-26 -3 -32 1 -34 21 -5 33 8 42 90
66 78 23 93 20 101 -20z m-939 11 c46 -19 60 -59 53 -150 -6 -77 -34 -149 -62
-160 -63 -24 -139 17 -151 79 -8 42 9 142 31 189 24 50 72 66 129 42z m305
-61 c24 -24 26 -32 25 -114 0 -69 -4 -95 -20 -122 -38 -66 -126 -69 -166 -5
-16 26 -19 44 -15 111 4 88 24 140 60 155 34 15 88 3 116 -25z m379 -2 c-2
-23 -8 -28 -33 -29 -50 -1 -55 -3 -55 -24 0 -13 14 -25 44 -39 50 -22 68 -48
70 -102 1 -66 -56 -100 -140 -84 -34 6 -36 8 -30 37 8 43 12 45 46 24 35 -20
50 -14 50 19 0 18 -10 30 -38 44 -51 26 -64 43 -69 94 -5 39 -2 46 22 65 21
17 41 22 82 22 53 0 54 0 51 -27z"/>
<path d="M2082 4160 c0 -14 2 -19 5 -12 2 6 2 18 0 25 -3 6 -5 1 -5 -13z"/>
<path d="M2170 4124 c0 -8 5 -12 10 -9 6 4 8 11 5 16 -9 14 -15 11 -15 -7z"/>
<path d="M3728 3983 c-28 -7 -21 -21 7 -15 14 2 25 8 25 13 0 9 -4 10 -32 2z"/>
<path d="M3650 3950 c0 -5 5 -10 10 -10 6 0 10 5 10 10 0 6 -4 10 -10 10 -5 0
-10 -4 -10 -10z"/>
<path d="M3760 3944 c0 -8 5 -12 10 -9 6 3 10 10 10 16 0 5 -4 9 -10 9 -5 0
-10 -7 -10 -16z"/>
<path d="M3556 3934 c-9 -24 -8 -26 14 -14 11 6 18 15 15 21 -9 14 -22 11 -29
-7z"/>
<path d="M1497 3136 c-80 -22 -129 -81 -147 -176 -22 -116 33 -211 145 -252
85 -31 214 -31 271 -1 86 46 119 113 112 228 -6 92 -40 149 -111 184 -60 29
-196 38 -270 17z"/>
<path d="M1232 3030 c-18 -4 -41 -15 -52 -25 -10 -9 -33 -24 -51 -33 -40 -20
-49 -49 -43 -137 2 -39 0 -65 -6 -65 -19 0 -50 40 -51 65 -1 14 -3 30 -4 35
-1 6 -3 19 -4 31 0 11 -5 18 -10 15 -12 -8 -6 -89 9 -126 8 -19 20 -30 34 -31
17 -1 17 -2 4 -6 -26 -7 -22 -22 7 -29 14 -3 25 -10 25 -15 0 -5 11 -9 25 -9
13 0 43 -7 65 -16 49 -20 56 -15 37 23 -8 17 -14 64 -15 123 -1 100 0 104 56
179 13 17 20 31 15 30 -4 -1 -23 -5 -41 -9z m-137 -279 c3 -5 1 -12 -5 -16 -5
-3 -10 1 -10 9 0 18 6 21 15 7z"/>
<path d="M2050 2969 c0 -8 4 -29 10 -48 10 -35 -3 -113 -23 -139 -5 -7 -7 -16
-3 -20 23 -23 61 91 51 154 -6 41 -35 84 -35 53z"/>
<path d="M1978 2505 c68 -61 92 -110 93 -192 1 -54 -4 -80 -22 -118 -22 -45
-32 -54 -108 -92 -47 -24 -94 -51 -105 -61 -12 -11 -29 -22 -38 -25 -10 -4
-18 -11 -18 -17 0 -6 8 -10 18 -9 9 2 33 -7 52 -19 68 -43 167 -26 256 43 32
25 63 45 69 45 13 0 42 29 59 59 6 10 17 28 24 40 13 22 13 22 -51 18 l-63 -3
0 100 c0 86 -3 107 -23 145 -32 61 -59 87 -106 98 -22 6 -49 14 -60 19 -10 4
0 -10 23 -31z"/>
<path d="M1466 2501 c-107 -36 -159 -111 -163 -234 -3 -111 26 -164 120 -216
74 -41 244 -51 349 -19 83 25 140 111 146 223 6 110 -45 197 -138 238 -67 30
-234 34 -314 8z"/>
<path d="M1160 2485 c0 -8 -4 -15 -8 -15 -20 0 -40 -62 -46 -147 -6 -77 -4
-93 10 -108 12 -11 14 -19 6 -27 -7 -7 -3 -27 14 -63 l23 -54 -45 14 c-25 7
-54 21 -63 29 -25 22 -41 20 -41 -6 0 -19 92 -118 110 -118 4 0 17 -12 31 -26
21 -23 30 -25 76 -21 41 4 53 2 53 -9 0 -8 3 -14 8 -14 16 1 42 28 42 45 0 11
5 15 14 12 16 -6 28 24 17 42 -4 6 -21 15 -37 20 -16 5 -38 12 -48 17 -16 6
-18 4 -14 -14 7 -25 -16 -31 -25 -8 -3 8 -18 16 -33 18 -21 2 -28 9 -30 31 -3
32 21 38 29 7 3 -11 12 -20 21 -20 23 0 20 9 -9 32 -30 24 -32 49 -5 66 27 16
25 30 -4 42 -20 7 -24 17 -28 72 -3 35 -2 68 2 73 4 6 11 20 14 33 6 17 3 22
-10 22 -16 0 -16 1 0 19 13 14 14 24 7 45 -11 28 -31 35 -31 11z m120 -515 c0
-5 -2 -10 -4 -10 -3 0 -8 5 -11 10 -3 6 -1 10 4 10 6 0 11 -4 11 -10z"/>
<path d="M1413 1988 c1 -7 -3 -12 -8 -11 -6 1 -22 -7 -35 -18 l-25 -19 53 0
53 0 -16 30 c-16 31 -27 39 -22 18z"/>
<path d="M1727 1963 c-4 -3 -7 -9 -7 -12 0 -8 51 -11 70 -5 13 4 13 6 0 14
-17 11 -54 13 -63 3z"/>
<path d="M1780 1901 c0 -6 5 -13 10 -16 6 -3 10 1 10 9 0 9 -4 16 -10 16 -5 0
-10 -4 -10 -9z"/>
<path d="M1813 1880 c-5 -19 -30 -26 -70 -21 -7 1 -13 -2 -13 -7 0 -14 107 -9
122 6 9 9 9 12 0 12 -7 0 -12 7 -12 15 0 22 -21 18 -27 -5z"/>
<path d="M1920 1869 c0 -5 5 -7 10 -4 6 3 10 8 10 11 0 2 -4 4 -10 4 -5 0 -10
-5 -10 -11z"/>
<path d="M1495 1840 c3 -5 8 -10 11 -10 2 0 4 5 4 10 0 6 -5 10 -11 10 -5 0
-7 -4 -4 -10z"/>
<path d="M3005 3119 c-73 -25 -116 -64 -138 -127 -62 -171 53 -312 254 -312
103 0 152 16 209 67 58 52 75 95 66 170 -12 102 -55 169 -131 204 -56 26 -180
25 -260 -2z"/>
<path d="M2680 2955 c-6 -8 -13 -24 -15 -37 -2 -13 -9 -44 -15 -69 -15 -62 -9
-150 10 -160 41 -21 84 -39 97 -39 7 0 13 -4 13 -9 0 -5 11 -8 25 -8 25 0 25
0 -9 33 -37 36 -74 135 -80 212 -2 23 -7 36 -15 34 -7 -1 -10 2 -6 8 3 6 11 8
16 5 5 -4 8 5 7 19 -3 29 -10 32 -28 11z"/>
<path d="M3621 2907 c-6 -14 -15 -27 -22 -29 -9 -3 -9 -9 0 -26 13 -24 36 -20
27 4 -3 8 1 14 9 14 9 0 15 10 15 24 0 35 -18 42 -29 13z"/>
<path d="M3510 2820 c0 -5 5 -10 10 -10 6 0 10 5 10 10 0 6 -4 10 -10 10 -5 0
-10 -4 -10 -10z"/>
<path d="M3580 2820 c0 -5 5 -10 10 -10 6 0 10 5 10 10 0 6 -4 10 -10 10 -5 0
-10 -4 -10 -10z"/>
<path d="M3454 2549 c-17 -7 -17 -8 3 -8 29 -1 99 -85 118 -141 28 -88 30
-145 5 -202 -12 -29 -32 -64 -44 -76 -20 -22 -90 -62 -108 -62 -19 0 -68 -45
-68 -62 0 -14 8 -18 38 -18 38 0 118 24 139 42 16 13 53 1 53 -18 0 -22 23
-17 63 14 43 33 72 81 91 153 8 30 19 67 25 82 17 44 13 68 -14 93 l-25 23 0
-38 c0 -47 -17 -98 -35 -105 -14 -5 -34 46 -71 182 -9 35 -23 66 -31 69 -7 3
-13 17 -13 32 0 25 -4 28 -54 37 -29 6 -62 7 -72 3z m296 -309 c0 -5 -2 -10
-4 -10 -3 0 -8 5 -11 10 -3 6 -1 10 4 10 6 0 11 -4 11 -10z"/>
<path d="M2804 2527 c-61 -35 -135 -124 -114 -137 8 -5 2 -11 -18 -18 -27 -9
-31 -16 -37 -64 -4 -29 -5 -97 -2 -151 l4 -98 33 -20 c18 -11 51 -23 74 -25
23 -3 47 -7 54 -9 22 -8 25 25 4 48 -11 12 -30 39 -41 61 -81 145 -66 271 48
399 27 30 26 32 -5 14z m-44 -487 c0 -5 -4 -10 -10 -10 -5 0 -10 5 -10 10 0 6
5 10 10 10 6 0 10 -4 10 -10z"/>
<path d="M3110 2509 c-131 -12 -210 -53 -245 -125 -23 -48 -31 -155 -15 -212
11 -44 62 -102 110 -126 87 -45 270 -47 356 -3 63 32 88 60 108 120 23 68 20
125 -10 206 -22 60 -33 75 -71 100 -26 17 -65 33 -92 36 -25 3 -53 7 -61 8 -8
2 -44 0 -80 -4z"/>
<path d="M3515 1963 c-11 -3 -24 -11 -28 -19 -4 -8 -17 -14 -27 -14 -11 0 -20
-6 -20 -14 0 -21 50 -14 67 9 7 11 13 14 13 8 0 -22 32 -22 66 1 25 17 31 25
21 29 -8 3 -20 0 -26 -6 -8 -8 -14 -8 -23 1 -7 7 -14 11 -17 11 -4 -1 -15 -4
-26 -6z"/>
<path d="M3030 1950 c0 -6 7 -10 15 -10 8 0 15 2 15 4 0 2 -7 6 -15 10 -8 3
-15 1 -15 -4z"/>
<path d="M3202 1938 c-15 -15 -15 -55 0 -64 6 -4 17 1 25 11 9 14 10 21 2 26
-6 4 -9 11 -5 17 9 15 -9 23 -22 10z"/>
<path d="M3102 1920 c7 -11 19 -18 26 -15 8 3 18 5 23 5 5 0 9 7 9 15 0 10
-11 15 -35 15 -33 0 -34 -1 -23 -20z"/>
<path d="M1671 1389 c-13 -50 -25 -98 -28 -105 -4 -11 8 -14 56 -14 34 0 61 4
61 8 0 9 -60 195 -65 200 -1 1 -12 -39 -24 -89z"/>
<path d="M2367 1533 c-16 -4 -17 -15 -15 -91 l3 -87 40 3 c59 5 103 21 120 45
16 23 20 84 7 105 -16 24 -103 39 -155 25z"/>
<path d="M3684 1015 c-12 -31 91 -146 116 -130 21 13 8 48 -36 95 -48 52 -70
61 -80 35z"/>
<path d="M1274 785 c-11 -18 -14 -29 -7 -36 7 -7 14 0 22 22 14 41 7 48 -15
14z"/>
<path d="M3330 761 c0 -23 74 -171 86 -171 23 0 34 34 24 71 -12 44 -66 109
-91 109 -10 0 -19 -4 -19 -9z"/>
<path d="M1973 592 c-34 -22 -44 -194 -12 -200 21 -4 36 38 45 122 5 47 3 64
-8 73 -7 7 -19 9 -25 5z"/>
<path d="M2236 528 c-20 -98 -16 -168 10 -168 23 0 35 47 32 119 -2 53 -6 66
-20 69 -11 2 -19 -5 -22 -20z"/>
</g>
</svg>
